PathFileType	4	(X/Y/Z)	/Users/itak/Documents/Research/Walk-IL/dataset/trc/00428_00167.trc
DataRate	CameraRate	NumFrames	NumMarkers	Units	OrigDataRate	OrigDataStartFrame	OrigNumFrames
100.000000	100.000000	4	53	mm	100.000000	0	786
Frame#	Time	RPSI			LPSI			L3			STRN			T10			C7			CLAV			RBAK			LBAK			LSHO			LUPA			LAEL			LAOL			LWTS			LWPS			LFRA			LIFD			LHPS			LHTS			RSHO			RUPA			RAEL			RAOL			RWTS			RWPS			RFRA			RIFD			RHTS			RHPS			RBHD			LFHD			RFHD			LBHD			LHIP			RHIP			RASI			LASI			LKNE			LTHI			LANK			LTIP			LTOE			LMT1			LMT5			LHEE			RKNE			RTHI			RANK			RTIP			RTOE			RMT1			RMT5			RHEE			
		X1	Y1	Z1	X2	Y2	Z2	X3	Y3	Z3	X4	Y4	Z4	X5	Y5	Z5	X6	Y6	Z6	X7	Y7	Z7	X8	Y8	Z8	X9	Y9	Z9	X10	Y10	Z10	X11	Y11	Z11	X12	Y12	Z12	X13	Y13	Z13	X14	Y14	Z14	X15	Y15	Z15	X16	Y16	Z16	X17	Y17	Z17	X18	Y18	Z18	X19	Y19	Z19	X20	Y20	Z20	X21	Y21	Z21	X22	Y22	Z22	X23	Y23	Z23	X24	Y24	Z24	X25	Y25	Z25	X26	Y26	Z26	X27	Y27	Z27	X28	Y28	Z28	X29	Y29	Z29	X30	Y30	Z30	X31	Y31	Z31	X32	Y32	Z32	X33	Y33	Z33	X34	Y34	Z34	X35	Y35	Z35	X36	Y36	Z36	X37	Y37	Z37	X38	Y38	Z38	X39	Y39	Z39	X40	Y40	Z40	X41	Y41	Z41	X42	Y42	Z42	X43	Y43	Z43	X44	Y44	Z44	X45	Y45	Z45	X46	Y46	Z46	X47	Y47	Z47	X48	Y48	Z48	X49	Y49	Z49	X50	Y50	Z50	X51	Y51	Z51	X52	Y52	Z52	X53	Y53	Z53	

1	0	-1198.881469726562	979.8145141601562	-436.794677734375	-1126.859619140625	978.4595336914062	-559.6278076171875	-1156.390502929688	1069.087036132812	-477.3345031738281	-916.2582397460938	1254.572509765625	-358.5180358886719	-1172.768310546875	1192.889038085938	-491.871337890625	-1116.148071289062	1460.160034179688	-450.5746154785156	-943.958251953125	1369.2734375	-378.4501953125	-1217.061889648438	1342.599609375	-393.8391418457031	-1098.38232421875	1413.639770507812	-554.7366333007812	-967.9115600585938	1428.66064453125	-574.02685546875	-930.6265258789062	1313.138427734375	-668.3110961914062	-893.5449829101562	1100.887084960938	-699.0558471679688	-993.3949584960938	1080.378540039062	-675.1840209960938	-824.4810791015625	902.4976806640625	-631.1275024414062	-842.9876098632812	884.9730834960938	-701.0741577148438	-865.3782348632812	1014.737670898438	-702.025390625	-809.9218139648438	734.4036254882812	-628.0665283203125	-833.3555297851562	803.4464111328125	-695.1112670898438	-801.3096923828125	814.13134765625	-631.6656494140625	-1123.793334960938	1427.978881835938	-274.1846618652344	-1175.389892578125	1368.931518554688	-212.9970092773438	-1210.194213867188	1084.796997070312	-156.5392456054688	-1238.257446289062	1066.695068359375	-216.0407104492188	-1102.059204101562	883.5814208984375	-139.168701171875	-1187.258178710938	870.18603515625	-120.9665298461914	-1212.112060546875	1026.741333007812	-144.5817565917969	-1107.167602539062	724.7694091796875	-122.8628463745117	-1096.837158203125	784.543212890625	-115.5312957763672	-1172.285522460938	784.247314453125	-109.1735916137695	-1092.859008789062	1649.609008789062	-348.8314514160156	-894.0711669921875	1674.331787109375	-403.5605773925781	-967.6547241210938	1674.222290039062	-294.8825073242188	-1007.218688964844	1654.037353515625	-504.8658142089844	-955.1362915039062	862.1566772460938	-594.06640625	-1177.659423828125	865.8693237304688	-262.0339660644531	-1052.03271484375	900.8970947265625	-260.9913024902344	-910.5112915039062	896.130126953125	-475.9631652832031	-984.409423828125	437.560302734375	-559.9156494140625	-948.78271484375	588.7900390625	-568.656005859375	-1041.179931640625	37.49710464477539	-578.7572021484375	-985.4677734375	287.1130981445312	-566.614013671875	-894.5326538085938	43.25313186645508	-396.6954345703125	-970.9798583984375	49.29924774169922	-416.2313842773438	-908.5696411132812	46.67810821533203	-509.9630126953125	-1114.772705078125	40.93331909179688	-567.8146362304688	-1161.280639648438	466.6684875488281	-300.3971862792969	-1151.758544921875	726.5208740234375	-238.9569549560547	-1174.527709960938	39.00978851318359	-335.2010192871094	-1169.220092773438	319.8853454589844	-296.0377502441406	-964.7347412109375	47.89900970458984	-270.0072937011719	-1003.1455078125	56.52154541015625	-330.6860656738281	-1069.921997070312	49.07610321044922	-246.6042022705078	-1206.7314453125	28.92603874206543	-409.4287414550781	
2	0.01	-1198.797241210938	979.8312377929688	-436.921630859375	-1126.811279296875	978.4631958007812	-559.6828002929688	-1156.266723632812	1069.106201171875	-477.383544921875	-916.0778198242188	1254.523315429688	-358.706298828125	-1172.653076171875	1192.965209960938	-491.8644714355469	-1115.938598632812	1460.19482421875	-450.587646484375	-943.7942504882812	1369.23486328125	-378.551513671875	-1216.868774414062	1342.656616210938	-393.718505859375	-1098.334838867188	1413.674438476562	-554.708984375	-967.899169921875	1428.6552734375	-574.1519775390625	-930.739013671875	1313.065307617188	-668.4389038085938	-893.6303100585938	1100.795288085938	-699.0894165039062	-993.4863891601562	1080.20458984375	-675.1583251953125	-824.5514526367188	902.569580078125	-630.927490234375	-843.1142578125	884.8572998046875	-700.8569946289062	-865.5377807617188	1014.653686523438	-701.9637451171875	-809.8638916015625	734.406982421875	-627.6178588867188	-833.4335327148438	803.3822631835938	-694.8153686523438	-801.3840942382812	814.1365356445312	-631.346435546875	-1123.473266601562	1427.952026367188	-274.0917358398438	-1175.00927734375	1368.909423828125	-212.9067687988281	-1209.838623046875	1084.785522460938	-156.494873046875	-1238.007690429688	1066.752563476562	-215.9380187988281	-1102.05224609375	883.4193115234375	-139.251708984375	-1187.2392578125	870.1287841796875	-121.0188140869141	-1211.876098632812	1026.7138671875	-144.5207977294922	-1107.3505859375	724.55712890625	-123.1044235229492	-1096.925659179688	784.3369750976562	-115.755989074707	-1172.404541015625	784.1900024414062	-109.2622985839844	-1092.638427734375	1649.649169921875	-348.8310241699219	-893.8572387695312	1674.331787109375	-403.7265319824219	-967.3300170898438	1674.224365234375	-294.9888610839844	-1007.060729980469	1654.019653320312	-504.9663696289062	-955.1484985351562	862.164794921875	-594.2631225585938	-1177.600463867188	865.8705444335938	-262.1648254394531	-1051.982788085938	900.8768920898438	-261.1153259277344	-910.3776245117188	896.1301879882812	-476.0603332519531	-984.3740844726562	437.5360412597656	-559.9600830078125	-948.6618041992188	588.7691650390625	-568.7249145507812	-1041.201904296875	37.50880432128906	-578.7578125	-985.3684692382812	287.1012573242188	-566.5921020507812	-894.5303344726562	43.25828170776367	-396.699462890625	-970.9811401367188	49.29869842529297	-416.2327575683594	-908.5697631835938	46.67797470092773	-509.9618835449219	-1114.772216796875	40.93673706054688	-567.8109130859375	-1161.27685546875	466.6834716796875	-300.45703125	-1151.738525390625	726.540771484375	-239.041259765625	-1174.5361328125	39.00796508789062	-335.2024841308594	-1169.22900390625	319.8997497558594	-296.1296997070312	-964.736572265625	47.90497970581055	-269.9549865722656	-1003.146423339844	56.53267669677734	-330.6744384765625	-1069.931884765625	49.0651969909668	-246.5977783203125	-1206.728759765625	28.92321586608887	-409.433837890625	
3	0.02	-1198.675659179688	979.8478393554688	-437.0997009277344	-1126.7216796875	978.468017578125	-559.7718505859375	-1156.111450195312	1069.126586914062	-477.4631958007812	-915.8441162109375	1254.457763671875	-358.9509582519531	-1172.508666992188	1193.055908203125	-491.8598327636719	-1115.67431640625	1460.234252929688	-450.5948791503906	-943.5869140625	1369.187377929688	-378.6869812011719	-1216.621704101562	1342.724365234375	-393.5711669921875	-1098.275512695312	1413.714721679688	-554.6807861328125	-967.8838500976562	1428.645141601562	-574.3199462890625	-930.8803100585938	1312.975341796875	-668.6118774414062	-893.7656860351562	1100.672241210938	-699.14599609375	-993.5897216796875	1080.00830078125	-675.1156616210938	-824.645751953125	902.6511840820312	-630.6852416992188	-843.281494140625	884.7122192382812	-700.5870361328125	-865.7410278320312	1014.5498046875	-701.8980712890625	-809.8259887695312	734.4114990234375	-627.0704956054688	-833.5323486328125	803.3020629882812	-694.431640625	-801.4847412109375	814.14501953125	-630.97119140625	-1123.057250976562	1427.91552734375	-273.996826171875	-1174.504516601562	1368.879150390625	-212.8036651611328	-1209.373779296875	1084.770874023438	-156.4329833984375	-1237.676025390625	1066.825439453125	-215.8036804199219	-1102.0029296875	883.2066040039062	-139.3753814697266	-1187.184936523438	870.0526123046875	-121.0823135375977	-1211.552734375	1026.6806640625	-144.4434051513672	-1107.5703125	724.2948608398438	-123.3947677612305	-1097.0126953125	784.0734252929688	-116.0363235473633	-1172.525146484375	784.1119384765625	-109.3812255859375	-1092.331787109375	1649.693237304688	-348.8294067382812	-893.5733642578125	1674.31884765625	-403.939453125	-966.8944091796875	1674.213623046875	-295.1202087402344	-1006.8623046875	1653.99755859375	-505.0838623046875	-955.1575317382812	862.1760864257812	-594.5028076171875	-1177.515625	865.872802734375	-262.3393859863281	-1051.93505859375	900.8339233398438	-261.2964782714844	-910.1873168945312	896.1365356445312	-476.1823120117188	-984.3340454101562	437.4999694824219	-560.0245971679688	-948.5032958984375	588.7395629882812	-568.8126220703125	-1041.22021484375	37.51970672607422	-578.7557983398438	-985.2557373046875	287.0844421386719	-566.577880859375	-894.5262451171875	43.26400756835938	-396.7066650390625	-970.981201171875	49.29865646362305	-416.2337951660156	-908.570068359375	46.67787170410156	-509.9605102539062	-1114.776000976562	40.94047927856445	-567.8021240234375	-1161.277099609375	466.70361328125	-300.5438537597656	-1151.708862304688	726.5682983398438	-239.1580657958984	-1174.544189453125	39.00481796264648	-335.2037353515625	-1169.2451171875	319.920166015625	-296.2447204589844	-964.7403564453125	47.91099166870117	-269.9048767089844	-1003.148864746094	56.54227447509766	-330.660400390625	-1069.942626953125	49.05146408081055	-246.5884246826172	-1206.724609375	28.92058563232422	-409.4414672851562	
4	0.03	-1198.512817382812	979.8619995117188	-437.3303833007812	-1126.58056640625	978.4734497070312	-559.901611328125	-1155.929809570312	1069.146606445312	-477.5764465332031	-915.5629272460938	1254.376708984375	-359.2459106445312	-1172.3408203125	1193.154174804688	-491.8613586425781	-1115.36669921875	1460.273681640625	-450.5923767089844	-943.3429565429688	1369.133178710938	-378.8556518554688	-1216.329345703125	1342.796875	-393.405029296875	-1098.205810546875	1413.757446289062	-554.6576538085938	-967.8654174804688	1428.628540039062	-574.5287475585938	-931.0422973632812	1312.873779296875	-668.8292236328125	-893.9598999023438	1100.52001953125	-699.2305908203125	-993.6957397460938	1079.80322265625	-675.0553588867188	-824.7634887695312	902.7347412109375	-630.4168090820312	-843.4841918945312	884.5440063476562	-700.2787475585938	-865.9816284179688	1014.429992675781	-701.8370361328125	-809.8206787109375	734.4168090820312	-626.4585571289062	-833.6470336914062	803.20947265625	-693.9741821289062	-801.6068725585938	814.15966796875	-630.5654907226562	-1122.555908203125	1427.86962890625	-273.9143981933594	-1173.88623046875	1368.8408203125	-212.6967926025391	-1208.81005859375	1084.753295898438	-156.3526916503906	-1237.266967773438	1066.909423828125	-215.6421661376953	-1101.892822265625	882.9479370117188	-139.5429229736328	-1187.079956054688	869.9586791992188	-121.1543350219727	-1211.140869140625	1026.643798828125	-144.3535308837891	-1107.807861328125	723.9942626953125	-123.7153778076172	-1097.081665039062	783.762451171875	-116.3559799194336	-1172.62353515625	784.0130615234375	-109.5298004150391	-1091.936401367188	1649.736206054688	-348.8253173828125	-893.2223510742188	1674.287719726562	-404.1934814453125	-966.354248046875	1674.184448242188	-295.2712707519531	-1006.630737304688	1653.972412109375	-505.2096557617188	-955.1528930664062	862.1891479492188	-594.7691040039062	-1177.402587890625	865.8763427734375	-262.5559387207031	-1051.897094726562	900.7647094726562	-261.5354614257812	-909.939208984375	896.1559448242188	-476.3243408203125	-984.2889404296875	437.4516906738281	-560.11083984375	-948.3106689453125	588.700439453125	-568.9171142578125	-1041.230590820312	37.52763366699219	-578.7501220703125	-985.13427734375	287.0636291503906	-566.5753784179688	-894.5206909179688	43.27001571655273	-396.7178344726562	-970.9793090820312	49.29958724975586	-416.2345886230469	-908.5707397460938	46.67784881591797	-509.959228515625	-1114.7841796875	40.94384765625	-567.7888793945312	-1161.282592773438	466.72900390625	-300.6594543457031	-1151.667724609375	726.6038208007812	-239.3085784912109	-1174.551025390625	39.00043487548828	-335.2045288085938	-1169.269165039062	319.9468383789062	-296.3773193359375	-964.7461547851562	47.916259765625	-269.8635559082031	-1003.153259277344	56.54798889160156	-330.645263671875	-1069.953369140625	49.03554916381836	-246.575927734375	-1206.718872070312	28.91894721984863	-409.4516906738281	
